<svg width="42" height="42" viewBox="0 0 42 42" fill="none" xmlns="http://www.w3.org/2000/svg">
<path opacity="0.2" d="M21.361 36.75C24.2416 36.6803 27.0483 35.8242 29.4774 34.2742C31.9065 32.7242 33.8654 30.5394 35.1422 27.9563V27.9563L26.2336 22.4766C26.0803 22.378 25.9062 22.3162 25.725 22.2961L21.968 21.7875C21.6877 21.7473 21.4019 21.8011 21.1555 21.9407C20.9091 22.0802 20.7159 22.2975 20.6063 22.5586L18.3586 27.5953C18.253 27.8296 18.2184 28.0898 18.2592 28.3435C18.3001 28.5972 18.4145 28.8334 18.5883 29.0227L21.6727 32.3532C21.8121 32.5064 21.9143 32.6898 21.9712 32.889C22.0281 33.0882 22.0382 33.2978 22.0008 33.5016L21.361 36.75Z" fill="#FF6250"/>
<path opacity="0.2" d="M9.24514 12.6241L10.7159 9.15952C13.5638 6.67257 17.2186 5.30527 20.9998 5.31253L20.9999 5.31253C22.3416 5.31276 23.6779 5.48072 24.9779 5.81248L26.4904 8.54472C26.4904 8.54482 26.4904 8.54491 26.4905 8.545C26.6246 8.79187 26.6729 9.07635 26.6276 9.35365C26.5823 9.63091 26.4461 9.88524 26.2405 10.0766C26.2404 10.0767 26.2403 10.0768 26.2402 10.0769L21.8276 14.063L21.8276 14.063L21.8263 14.0642C21.7563 14.131 21.678 14.1885 21.5932 14.2351L21.5931 14.2352L19.5761 15.3503C19.576 15.3504 19.5758 15.3504 19.5757 15.3505C19.3922 15.4478 19.1887 15.5014 18.9811 15.5071L15.471 15.5071L15.4707 15.5071C15.1999 15.5084 14.9354 15.5888 14.7096 15.7383C14.4838 15.8878 14.3065 16.1 14.1996 16.3488L14.1994 16.3492L12.8575 19.534L12.0224 19.3639C12.0223 19.3639 12.0222 19.3639 12.0221 19.3639C11.8157 19.3197 11.6241 19.2233 11.4656 19.0839C11.307 18.9445 11.1869 18.7667 11.1167 18.5675L11.1167 18.5675L11.1163 18.5663L9.22955 13.546L9.22952 13.5459C9.11709 13.2479 9.12265 12.9183 9.24506 12.6243C9.24509 12.6242 9.24512 12.6241 9.24514 12.6241Z" fill="#FF8282" stroke="#FF6250" stroke-width="0.125"/>
<path d="M21 36.75C29.6985 36.75 36.75 29.6985 36.75 21C36.75 12.3015 29.6985 5.25 21 5.25C12.3015 5.25 5.25 12.3015 5.25 21C5.25 29.6985 12.3015 36.75 21 36.75Z" stroke="#FF6250" stroke-width="2" stroke-linecap="round" stroke-linejoin="round"/>
<path d="M35.1422 27.9563L26.2336 22.4766C26.0803 22.378 25.9062 22.3162 25.725 22.2961L21.968 21.7875C21.6877 21.7473 21.4019 21.8011 21.1555 21.9407C20.9091 22.0802 20.7159 22.2975 20.6063 22.5586L18.3586 27.5953C18.253 27.8296 18.2184 28.0898 18.2592 28.3435C18.3001 28.5972 18.4145 28.8334 18.5883 29.0227L21.6727 32.3532C21.8121 32.5064 21.9143 32.6898 21.9712 32.889C22.0281 33.0882 22.0382 33.2978 22.0008 33.5016L21.361 36.75" stroke="#FF6250" stroke-width="2" stroke-linecap="round" stroke-linejoin="round"/>
<path d="M10.664 9.12189L9.18745 12.6C9.05883 12.9088 9.05297 13.255 9.17104 13.568L11.0578 18.5883C11.1315 18.7975 11.2577 18.9844 11.4243 19.1309C11.5909 19.2774 11.7924 19.3786 12.0093 19.425L15.5203 20.1797C15.7151 20.2191 15.8981 20.3034 16.0548 20.4258C16.2114 20.5483 16.3373 20.7056 16.4226 20.8852L17.046 22.1813C17.1568 22.4004 17.3254 22.5851 17.5337 22.7152C17.7419 22.8453 17.9818 22.916 18.2273 22.9195H20.4421" stroke="#FF8282" stroke-width="2" stroke-linecap="round" stroke-linejoin="round"/>
<path d="M25.0195 5.75861L26.5453 8.51486C26.6861 8.77398 26.7368 9.07261 26.6893 9.3637C26.6417 9.65479 26.4987 9.9218 26.2828 10.1227L21.8695 14.1094C21.7956 14.1799 21.7129 14.2406 21.6234 14.2899L19.6054 15.4055C19.4131 15.5075 19.1997 15.5637 18.982 15.5695H15.471C15.2124 15.5709 14.9598 15.6476 14.7441 15.7904C14.5285 15.9332 14.3592 16.1358 14.257 16.3735L12.8953 19.6055" stroke="#FF8282" stroke-width="2" stroke-linecap="round" stroke-linejoin="round"/>
</svg>
