<svg width="43" height="42" viewBox="0 0 43 42" fill="none" xmlns="http://www.w3.org/2000/svg">
<path opacity="0.2" d="M11.9353 35.8148C11.8131 35.9389 11.6676 36.0373 11.507 36.1046C11.3465 36.1718 11.1742 36.2064 11.0001 36.2064C10.826 36.2064 10.6537 36.1718 10.4932 36.1046C10.3326 36.0373 10.1871 35.9389 10.0649 35.8148L6.68526 32.4352C6.56125 32.313 6.46276 32.1675 6.39554 32.0069C6.32832 31.8464 6.2937 31.6741 6.2937 31.5C6.2937 31.3259 6.32832 31.1536 6.39554 30.9931C6.46276 30.8325 6.56125 30.687 6.68526 30.5648L24.1251 13.125L29.3751 18.375L11.9353 35.8148Z" fill="#FF6250"/>
<path d="M35.9375 21V28.875" stroke="#FF6250" stroke-width="2.375" stroke-linecap="round" stroke-linejoin="round"/>
<path d="M32 24.9375H39.875" stroke="#FF6250" stroke-width="2.375" stroke-linecap="round" stroke-linejoin="round"/>
<path d="M14.2812 6.5625V13.125" stroke="#FF6250" stroke-width="2.375" stroke-linecap="round" stroke-linejoin="round"/>
<path d="M11 9.84375H17.5625" stroke="#FF6250" stroke-width="2.375" stroke-linecap="round" stroke-linejoin="round"/>
<path d="M28.0625 30.1875V35.4375" stroke="#FF6250" stroke-width="2.375" stroke-linecap="round" stroke-linejoin="round"/>
<path d="M25.4375 32.8125H30.6875" stroke="#FF6250" stroke-width="2.375" stroke-linecap="round" stroke-linejoin="round"/>
<path d="M31.0857 6.17411L6.68882 30.5709C6.17626 31.0835 6.17626 31.9145 6.68882 32.4271L10.0821 35.8204C10.5947 36.3329 11.4257 36.3329 11.9383 35.8204L36.3351 11.4235C36.8477 10.911 36.8477 10.08 36.3351 9.56739L32.9418 6.17411C32.4293 5.66154 31.5982 5.66154 31.0857 6.17411Z" stroke="#FF6250" stroke-width="2.375" stroke-linecap="round" stroke-linejoin="round"/>
<path d="M24.125 13.125L29.375 18.375" stroke="#FF6250" stroke-width="2.375" stroke-linecap="round" stroke-linejoin="round"/>
</svg>
