<svg width="24" height="25" viewBox="0 0 24 25" fill="none" xmlns="http://www.w3.org/2000/svg">
<path opacity="0.2" d="M8.67187 12.1998C9.44364 13.7935 10.7324 15.079 12.3281 15.8467C12.4458 15.9024 12.576 15.9265 12.7059 15.9167C12.8358 15.9068 12.9608 15.8633 13.0687 15.7904L15.4125 14.2248C15.516 14.1546 15.6357 14.1117 15.7603 14.1002C15.8849 14.0887 16.0104 14.109 16.125 14.1592L20.5125 16.0435C20.6625 16.1059 20.7877 16.2159 20.869 16.3565C20.9504 16.4971 20.9832 16.6606 20.9625 16.8217C20.8234 17.907 20.2937 18.9046 19.4723 19.6276C18.6509 20.3506 17.5943 20.7495 16.5 20.7498C13.1185 20.7498 9.87548 19.4065 7.48439 17.0154C5.0933 14.6243 3.75 11.3813 3.75 7.99979C3.75025 6.90553 4.1492 5.84886 4.87221 5.0275C5.59522 4.20613 6.59274 3.67635 7.67812 3.53729C7.83922 3.51659 8.00266 3.54943 8.14326 3.63074C8.28386 3.71206 8.39384 3.83733 8.45625 3.98729L10.3406 8.38416C10.3896 8.49699 10.4101 8.62013 10.4003 8.74275C10.3905 8.86537 10.3507 8.98369 10.2844 9.08729L8.71875 11.4685C8.64905 11.5762 8.60814 11.7 8.59993 11.828C8.59172 11.9561 8.61649 12.0841 8.67187 12.1998Z" fill="#009379"/>
<path d="M8.67187 12.1998C9.44364 13.7935 10.7324 15.079 12.3281 15.8467C12.4458 15.9024 12.576 15.9265 12.7059 15.9167C12.8358 15.9068 12.9608 15.8633 13.0687 15.7904L15.4125 14.2248C15.516 14.1546 15.6357 14.1117 15.7603 14.1002C15.8849 14.0887 16.0104 14.109 16.125 14.1592L20.5125 16.0435C20.6625 16.1059 20.7877 16.2159 20.869 16.3565C20.9504 16.4971 20.9832 16.6606 20.9625 16.8217C20.8234 17.907 20.2937 18.9046 19.4723 19.6276C18.6509 20.3506 17.5943 20.7495 16.5 20.7498C13.1185 20.7498 9.87548 19.4065 7.48439 17.0154C5.0933 14.6243 3.75 11.3813 3.75 7.99979C3.75025 6.90553 4.1492 5.84886 4.87221 5.0275C5.59522 4.20613 6.59274 3.67635 7.67812 3.53729C7.83922 3.51659 8.00266 3.54943 8.14326 3.63074C8.28386 3.71206 8.39384 3.83733 8.45625 3.98729L10.3406 8.38416C10.3896 8.49699 10.4101 8.62013 10.4003 8.74275C10.3905 8.86537 10.3507 8.98369 10.2844 9.08729L8.71875 11.4685C8.64905 11.5762 8.60814 11.7 8.59993 11.828C8.59172 11.9561 8.61649 12.0841 8.67187 12.1998Z" stroke="#009379" stroke-width="1.5" stroke-linecap="round" stroke-linejoin="round"/>
<path d="M14.9438 4.25C16.216 4.59141 17.3759 5.26142 18.3073 6.19279C19.2387 7.12416 19.9087 8.28412 20.2501 9.55625" stroke="#009379" stroke-width="1.5" stroke-linecap="round" stroke-linejoin="round"/>
<path d="M14.1655 7.14697C14.9306 7.35017 15.6284 7.75202 16.1882 8.31179C16.748 8.87156 17.1498 9.56936 17.353 10.3345" stroke="#009379" stroke-width="1.5" stroke-linecap="round" stroke-linejoin="round"/>
</svg>
