<svg width="42" height="42" viewBox="0 0 42 42" fill="none" xmlns="http://www.w3.org/2000/svg">
<path d="M15.1758 20.4751C16.5264 23.2641 18.7817 25.5137 21.5742 26.8571C21.7802 26.9546 22.008 26.9968 22.2353 26.9796C22.4626 26.9623 22.6814 26.8862 22.8703 26.7586L26.9719 24.0188C27.1531 23.8959 27.3625 23.8209 27.5805 23.8008C27.7986 23.7807 28.0181 23.8162 28.2187 23.904L35.8969 27.2016C36.1593 27.3108 36.3785 27.5033 36.5208 27.7493C36.6631 27.9954 36.7206 28.2814 36.6844 28.5633C36.441 30.4628 35.5139 32.2084 34.0765 33.4737C32.6391 34.739 30.7899 35.4371 28.875 35.4376C22.9574 35.4376 17.2821 33.0868 13.0977 28.9024C8.91327 24.718 6.5625 19.0427 6.5625 13.1251C6.56293 11.2101 7.2611 9.36094 8.52637 7.92354C9.79164 6.48615 11.5373 5.55904 13.4367 5.31568C13.7186 5.27947 14.0047 5.33693 14.2507 5.47923C14.4968 5.62153 14.6892 5.84076 14.7984 6.10318L18.0961 13.7977C18.1818 13.9952 18.2177 14.2107 18.2006 14.4252C18.1834 14.6398 18.1137 14.8469 17.9977 15.0282L15.2578 19.1954C15.1358 19.3838 15.0642 19.6005 15.0499 19.8245C15.0355 20.0486 15.0789 20.2725 15.1758 20.4751V20.4751Z" stroke="#009379" stroke-width="1.66667" stroke-linecap="round" stroke-linejoin="round"/>
</svg>
