<svg width="32" height="33" viewBox="0 0 32 33" fill="none" xmlns="http://www.w3.org/2000/svg">
<path fill-rule="evenodd" clip-rule="evenodd" d="M0 16.5C0 7.66344 7.16344 0.5 16 0.5C24.8366 0.5 32 7.66344 32 16.5C32 25.3366 24.8366 32.5 16 32.5C7.16344 32.5 0 25.3366 0 16.5Z" fill="#E5F4F2"/>
<path d="M11.546 10.3818C11.5224 9.3136 10.7586 8.5 9.51815 8.5C8.27774 8.5 7.4668 9.3136 7.4668 10.3818C7.4668 11.4279 8.25377 12.2649 9.47108 12.2649H9.49426C10.7586 12.2649 11.546 11.4279 11.546 10.3818Z" fill="#2D2D2D"/>
<path d="M11.3072 13.752H7.68121V24.6464H11.3072V13.752Z" fill="#2D2D2D"/>
<path d="M20.2089 13.4961C22.5949 13.4961 24.3837 15.0535 24.3837 18.3998L24.3836 24.6464H20.7578V18.8178C20.7578 17.3538 20.2331 16.3548 18.9205 16.3548C17.9187 16.3548 17.3221 17.0283 17.06 17.6788C16.9641 17.9119 16.9406 18.2367 16.9406 18.5623V24.6467H13.3142C13.3142 24.6467 13.362 14.7745 13.3142 13.7522H16.9406V15.2953C17.4218 14.5535 18.2838 13.4961 20.2089 13.4961Z" fill="#2D2D2D"/>
</svg>
